<?xml version="1.0" encoding="UTF-8"?>
<svg width="137px" height="119px" viewBox="0 0 137 119" version="1.1" xmlns="http://www.w3.org/2000/svg" xmlns:xlink="http://www.w3.org/1999/xlink">
    <!-- Generator: Sketch 53.2 (72643) - https://sketchapp.com -->
    <title>Plant</title>
    <desc>Created with Sketch.</desc>
    <g id="Web" stroke="none" stroke-width="1" fill="none" fill-rule="evenodd" stroke-linecap="round" stroke-linejoin="round">
        <g id="01.0-[Home]" transform="translate(-159.000000, -811.000000)" stroke-width="2">
            <g id="Long-Desc" transform="translate(160.000000, 811.000000)">
                <g id="Plant">
                    <path d="M27.0524,89.5357 L27.0524,15.0097" id="Stroke-1" stroke="#2DBBC4"></path>
                    <g id="Group-36" transform="translate(16.000000, 0.535000)" stroke="#2DBBC4">
                        <path d="M13.5138,7.8498 C13.5138,11.9288 11.0528,15.2348 11.0528,15.2348 C11.0528,15.2348 8.5908,11.9288 8.5908,7.8498 C8.5908,3.7708 9.6928,0.4648 11.0528,0.4648 C12.4118,0.4648 13.5138,3.7708 13.5138,7.8498 Z" id="Stroke-2"></path>
                        <path d="M17.692,27.4552 C15.065,30.5752 11.052,31.5172 11.052,31.5172 C11.052,31.5172 11.299,27.4032 13.927,24.2842 C16.554,21.1642 19.527,19.3462 20.567,20.2212 C21.607,21.0972 20.319,24.3362 17.692,27.4552 Z" id="Stroke-4"></path>
                        <path d="M4.153,27.2355 C6.78,30.3545 10.793,31.2975 10.793,31.2975 C10.793,31.2975 10.546,27.1835 7.919,24.0645 C5.291,20.9445 2.319,19.1255 1.278,20.0015 C0.239,20.8775 1.526,24.1155 4.153,27.2355 Z" id="Stroke-6"></path>
                        <path d="M17.692,43.9587 C15.065,47.0777 11.052,48.0207 11.052,48.0207 C11.052,48.0207 11.299,43.9067 13.927,40.7877 C16.554,37.6677 19.527,35.8487 20.567,36.7247 C21.607,37.6007 20.319,40.8387 17.692,43.9587 Z" id="Stroke-8"></path>
                        <path d="M4.153,43.7389 C6.78,46.8579 10.793,47.8009 10.793,47.8009 C10.793,47.8009 10.546,43.6869 7.919,40.5679 C5.291,37.4479 2.319,35.6289 1.278,36.5049 C0.239,37.3809 1.526,40.6189 4.153,43.7389 Z" id="Stroke-10"></path>
                        <path d="M17.692,60.6818 C15.065,63.8018 11.052,64.7438 11.052,64.7438 C11.052,64.7438 11.299,60.6298 13.927,57.5108 C16.554,54.3908 19.527,52.5718 20.567,53.4478 C21.607,54.3238 20.319,57.5618 17.692,60.6818 Z" id="Stroke-12"></path>
                        <path d="M4.153,60.4621 C6.78,63.5811 10.793,64.5241 10.793,64.5241 C10.793,64.5241 10.546,60.4101 7.919,57.2911 C5.291,54.1711 2.319,52.3521 1.278,53.2281 C0.239,54.1041 1.526,57.3421 4.153,60.4621 Z" id="Stroke-14"></path>
                        <path d="M17.692,76.2238 C15.065,79.3438 11.052,80.2858 11.052,80.2858 C11.052,80.2858 11.299,76.1718 13.927,73.0528 C16.554,69.9328 19.527,68.1148 20.567,68.9898 C21.607,69.8658 20.319,73.1048 17.692,76.2238 Z" id="Stroke-16"></path>
                        <path d="M4.153,76.0041 C6.78,79.1241 10.793,80.0661 10.793,80.0661 C10.793,80.0661 10.546,75.9521 7.919,72.8331 C5.291,69.7131 2.319,67.8951 1.278,68.7701 C0.239,69.6461 1.526,72.8851 4.153,76.0041 Z" id="Stroke-18"></path>
                        <path d="M59.9211,87.9479 L59.9211,29.6579" id="Stroke-20"></path>
                        <path d="M62.3825,23.0339 C62.3825,27.1129 59.9215,30.4189 59.9215,30.4189 C59.9215,30.4189 57.4595,27.1129 57.4595,23.0339 C57.4595,18.9559 58.5615,15.6499 59.9215,15.6499 C61.2805,15.6499 62.3825,18.9559 62.3825,23.0339 Z" id="Stroke-22"></path>
                        <path d="M66.5607,42.6393 C63.9337,45.7593 59.9207,46.7013 59.9207,46.7013 C59.9207,46.7013 60.1677,42.5873 62.7957,39.4683 C65.4227,36.3483 68.3957,34.5303 69.4357,35.4053 C70.4757,36.2813 69.1877,39.5203 66.5607,42.6393 Z" id="Stroke-24"></path>
                        <path d="M53.0216,42.4196 C55.6486,45.5396 59.6616,46.4816 59.6616,46.4816 C59.6616,46.4816 59.4146,42.3676 56.7876,39.2486 C54.1596,36.1286 51.1876,34.3106 50.1466,35.1856 C49.1076,36.0616 50.3946,39.3006 53.0216,42.4196 Z" id="Stroke-26"></path>
                        <path d="M66.5607,59.1427 C63.9337,62.2627 59.9207,63.2047 59.9207,63.2047 C59.9207,63.2047 60.1677,59.0907 62.7957,55.9717 C65.4227,52.8517 68.3957,51.0337 69.4357,51.9087 C70.4757,52.7847 69.1877,56.0237 66.5607,59.1427 Z" id="Stroke-28"></path>
                        <path d="M53.0216,58.923 C55.6486,62.042 59.6616,62.985 59.6616,62.985 C59.6616,62.985 59.4146,58.871 56.7876,55.752 C54.1596,52.632 51.1876,50.813 50.1466,51.689 C49.1076,52.565 50.3946,55.803 53.0216,58.923 Z" id="Stroke-30"></path>
                        <path d="M66.5607,75.8659 C63.9337,78.9859 59.9207,79.9279 59.9207,79.9279 C59.9207,79.9279 60.1677,75.8139 62.7957,72.6949 C65.4227,69.5749 68.3957,67.7569 69.4357,68.6319 C70.4757,69.5079 69.1877,72.7469 66.5607,75.8659 Z" id="Stroke-32"></path>
                        <path d="M53.0216,75.6462 C55.6486,78.7662 59.6616,79.7082 59.6616,79.7082 C59.6616,79.7082 59.4146,75.5942 56.7876,72.4752 C54.1596,69.3552 51.1876,67.5362 50.1466,68.4122 C49.1076,69.2882 50.3946,72.5262 53.0216,75.6462 Z" id="Stroke-34"></path>
                    </g>
                    <g id="Group-43" transform="translate(0.000000, 80.535000)" stroke="#F7AFBB">
                        <path d="M0.0002,1.1564 C13.4212,1.0514 13.4842,9.1044 26.9052,8.9994 C40.3262,8.8954 40.2632,0.8424 53.6842,0.7374 C67.1062,0.6324 67.1692,8.6854 80.5902,8.5804 C94.0142,8.4754 93.9512,0.4224 107.3752,0.3174 C120.7982,0.2124 120.8612,8.2654 134.2852,8.1604" id="Stroke-37"></path>
                        <path d="M0.1095,15.1559 C13.5305,15.0519 13.5935,23.1039 27.0145,22.9989 C40.4355,22.8949 40.3725,14.8419 53.7935,14.7369 C67.2155,14.6319 67.2785,22.6849 80.7005,22.5799 C94.1235,22.4749 94.0605,14.4219 107.4845,14.3169 C120.9075,14.2119 120.9705,22.2649 134.3945,22.1599" id="Stroke-39"></path>
                        <path d="M0.2189,29.1559 C13.6399,29.0509 13.7029,37.1039 27.1239,36.9989 C40.5449,36.8939 40.4819,28.8409 53.9039,28.7359 C67.3249,28.6309 67.3879,36.6839 80.8099,36.5789 C94.2329,36.4739 94.1699,28.4219 107.5939,28.3169 C121.0169,28.2119 121.0799,36.2649 134.5039,36.1599" id="Stroke-41"></path>
                    </g>
                </g>
            </g>
        </g>
    </g>
</svg>