<?xml version="1.0" encoding="UTF-8"?>
<svg width="52px" height="55px" viewBox="0 0 52 55" version="1.1" xmlns="http://www.w3.org/2000/svg" xmlns:xlink="http://www.w3.org/1999/xlink">
    <!-- Generator: Sketch 53.2 (72643) - https://sketchapp.com -->
    <title>Flag</title>
    <desc>Created with Sketch.</desc>
    <g id="Web" stroke="none" stroke-width="1" fill="none" fill-rule="evenodd" stroke-linecap="round" stroke-linejoin="round">
        <g id="01.0-[Home]" transform="translate(-159.000000, -3652.000000)" stroke="#F7AFBB" stroke-width="2">
            <g id="Benefits" transform="translate(160.000000, 3605.000000)">
                <g id="Text" transform="translate(0.000000, 47.000000)">
                    <g id="Flag">
                        <g id="Group-21" transform="translate(0.000000, 0.973000)">
                            <path d="M0.6924,52.8043438 C0.6924,41.0760896 0.6924,23.4837083 0.6924,0.0272 C2.1044,1.8732 12.2034,7.7372 24.9094,2.8502 C37.6154,-2.0358 49.3434,2.8502 49.3434,2.8502 L49.3434,32.1722 C49.3434,32.1722 36.0444,24.6472 27.5154,29.2402 C14.8094,36.0822 0.6924,24.7872 0.6924,24.7872" id="Stroke-11"></path>
                            <path d="M9.459,4.8057 L9.459,28.5877" id="Stroke-13"></path>
                            <path d="M19.459,5.0225 L19.459,31.0855" id="Stroke-15"></path>
                            <path d="M29.459,1.7197 L29.459,27.7737" id="Stroke-17"></path>
                            <path d="M39.459,0.7295 L39.459,28.0995" id="Stroke-19"></path>
                        </g>
                    </g>
                </g>
            </g>
        </g>
    </g>
</svg>