<?xml version="1.0" encoding="UTF-8"?>
<svg width="444px" height="230px" viewBox="0 0 444 230" version="1.1" xmlns="http://www.w3.org/2000/svg" xmlns:xlink="http://www.w3.org/1999/xlink">
    <!-- Generator: Sketch 54.1 (76490) - https://sketchapp.com -->
    <title>Group 7</title>
    <desc>Created with Sketch.</desc>
    <g id="Web" stroke="none" stroke-width="1" fill="none" fill-rule="evenodd">
        <g id="01.0-[Home]" transform="translate(-259.000000, -2990.000000)" fill="#2DBBC4">
            <g id="Final" transform="translate(259.000000, 2989.000000)">
                <g id="Filegree">
                    <g id="Group-7">
                        <g id="Group-3" transform="translate(0.000000, 11.986000)">
                            <path d="M442.771882,217.608102 C285.697389,53.2829088 116.143932,8.53360801 1.24624791,0 L0,1.51264624 C0.0692359952,1.53679589 0.136274022,1.56533638 0.213202906,1.57082494 C114.83614,9.9156266 284.453339,54.3663499 441.580584,218.744233 C441.742134,218.913281 441.959733,219 442.176233,219 C442.381743,219 442.586154,218.92316 442.745507,218.771676 C443.074103,218.457731 443.086192,217.936318 442.771882,217.608102" id="Fill-1"></path>
                        </g>
                        <g id="Group-6" transform="translate(8.000000, 0.986000)">
                            <path d="M435.771794,217.604472 C281.144972,55.479956 114.357553,9.73127893 1.19066335,0 L0,1.55070934 C112.898633,11.0662757 279.830075,56.493585 434.580031,218.743566 C434.741644,218.913055 434.959328,219 435.175912,219 C435.381502,219 435.585993,218.92296 435.745408,218.771081 C436.074132,218.456316 436.086225,217.933543 435.771794,217.604472" id="Fill-4"></path>
                        </g>
                    </g>
                </g>
            </g>
        </g>
    </g>
</svg>